<svg xmlns="http://www.w3.org/2000/svg" xmlns:xlink="http://www.w3.org/1999/xlink" id="Capa_1" x="0px" y="0px" viewBox="0 0 63 63" style="enable-background:new 0 0 512.001 512.001;" xml:space="preserve" fill="#f6d48c"><path id="Shape" d="m58.647 54.254c-.304-.761-1.042-1.258-1.861-1.254h-4.786v-14c0-1.657-1.343-3-3-3h-11v-2c-.005-1.267-.806-2.394-2-2.816v-1.184c-.005-1.267-.806-2.394-2-2.816v-3.948c3.198-1.257 5.629-3.932 6.574-7.236h1.426c2.76-.003 4.997-2.24 5-5v-5c0-1.657-1.343-3-3-3h-3v-1c0-1.105-.895-2-2-2h-18c-1.105 0-2 .895-2 2v1h-3c-1.657 0-3 1.343-3 3v5c.003 2.76 2.24 4.997 5 5h1.426c.945 3.304 3.376 5.979 6.574 7.236v3.948c-1.194.422-1.995 1.549-2 2.816v1.184c-1.194.422-1.995 1.549-2 2.816v7h-11c-1.657 0-3 1.343-3 3v9h-4.786c-.819-.005-1.557.493-1.86 1.254l-1.211 3.016c-.245.612-.171 1.305.2 1.85.372.55.993.88 1.657.88h56c.666.001 1.288-.329 1.661-.88.371-.545.446-1.239.2-1.851zm-14.647-49.254c.552 0 1 .448 1 1v5c0 1.657-1.343 3-3 3h-1.051c.03-.33.051-.662.051-1v-8zm5 33c.552 0 1 .448 1 1v14h-12v-15zm-31-24c-1.657 0-3-1.343-3-3v-5c0-.552.448-1 1-1h3v8c0 .338.021.67.051 1zm3-1v-11h18v11c0 4.971-4.029 9-9 9s-9-4.029-9-9zm9 11c.671-.002 1.341-.066 2-.191v3.191h-4v-3.191c.659.125 1.329.189 2 .191zm-4 6c0-.552.448-1 1-1h6c.552 0 1 .448 1 1v1h-8zm-1 3h10c.552 0 1 .448 1 1v19h-12v-19c0-.552.448-1 1-1zm-15 11c0-.552.448-1 1-1h11v10h-12zm48 14-56 .013 1.214-3.013h53.577z"/><path d="m31.638 15.768c.627.347 1.398.302 1.98-.116.609-.431.915-1.173.787-1.908l-.321-1.956 1.356-1.378c.518-.523.696-1.294.46-1.992-.221-.682-.808-1.181-1.517-1.291l-1.842-.279-.832-1.755c-.307-.666-.974-1.092-1.707-1.092s-1.4.426-1.707 1.092l-.832 1.755-1.842.279c-.71.108-1.299.608-1.521 1.291-.237.697-.06 1.468.457 1.992l1.357 1.378-.314 1.955c-.128.735.178 1.478.787 1.909.583.416 1.353.462 1.98.116l1.638-.9zm-2.538-2.686-1.509.826.378-2.3c.052-.315-.05-.636-.274-.864l-1.635-1.661 2.226-.338c.329-.05.611-.26.754-.56l.96-2.025.96 2.025c.143.3.425.51.754.56l2.226.338-1.64 1.663c-.224.228-.326.549-.274.864l.421 2.322-1.55-.849c-.56-.31-1.24-.31-1.8 0z"/></svg>