<?xml version="1.0" encoding="utf-8"?>
<!-- Generator: Adobe Illustrator 24.1.1, SVG Export Plug-In . SVG Version: 6.00 Build 0)  -->
<svg version="1.1" id="Calque_1" xmlns="http://www.w3.org/2000/svg" xmlns:xlink="http://www.w3.org/1999/xlink" x="0px" y="0px"
	 viewBox="0 0 30 50" style="enable-background:new 0 0 30 50;" xml:space="preserve">
<style type="text/css">
	.st0{fill:#ACDBEA;}
</style>
<g>
	<path class="st0" d="M9.5,35.2l4.5,5.7c0.5,0.7,1.5,0.7,2,0l4.5-5.7c0.3-0.4,0.4-1,0.2-1.5L15.6,23c-0.3-0.5-1-0.5-1.2,0L9.3,33.7
		C9.1,34.2,9.1,34.8,9.5,35.2z"/>
	<path class="st0" d="M28.8,27.2L16.1,2.3c-0.4-0.9-1.7-0.9-2.1,0L1.1,27.2c-1.5,2.9-1.1,6.3,1,8.8L12,47.7c1.5,1.8,4.3,1.8,5.9,0
		L27.8,36C29.9,33.5,30.3,30.1,28.8,27.2z M24.9,36.3L17,45.7c-0.5,0.6-1.2,0.9-2,0.9c0,0,0,0,0,0c-0.8,0-1.5-0.3-2-0.9l-7.9-9.4
		c-1-1.2-1.2-2.9-0.5-4.3l9.8-19.2c0.3-0.5,1-0.5,1.2,0l9.8,19.2C26.1,33.5,25.9,35.1,24.9,36.3z"/>
</g>
</svg>
