<svg height="512pt" viewBox="0 0 512 512" width="512pt" fill="#39c635" xmlns="http://www.w3.org/2000/svg"><path d="m0 0v512h512v-512zm210 482v-30h242.011719v-30h-362.011719v-60.011719h-30v90.011719h120v30h-150v-452h150.953125v30h-60.964844v30h90.964844v-60h271.046875v332h-30v-302.011719h-30v242.011719h-60v60h-30v-182h-152v152h91.964844v-30h-61.964844v-92h92v31h-61.011719v30h61.011719v121h90v-60h30v60h60v90zm0 0"/><path d="m150 302h-60v-92h30v61.964844h30v-121.964844h181.058594v-30h-211.058594v60h-30v-120.011719h-30v272.011719h60v60h151.964844v-30h-121.964844zm0 0"/><path d="m362 271.964844h30v-211.964844h-151.011719v30h121.011719zm0 0"/></svg>